<?xml version="1.0" encoding="UTF-8" standalone="no"?>
<!-- Created with Inkscape (http://www.inkscape.org/) -->

<svg
   version="1.1"
   id="svg222"
   width="120"
   height="392.72699"
   viewBox="0 0 120 392.72699"
   xmlns="http://www.w3.org/2000/svg"
   xmlns:svg="http://www.w3.org/2000/svg">
  <!-- xmlns:svg="http://www.w3.org/2000/svg" -->
  <defs
     id="defs226" />
  <g
     id="yellow_released-2"
     style="display:inline;stroke-width:1.13469"
     transform="matrix(1.0000033,0,0,0.77668457,0.50907438,0.56298576)">
    <path
       id="rect1100-6-3-0"
       style="display:inline;fill:#fab01d;fill-opacity:1;stroke:#1c1117;stroke-width:8.57714;stroke-linecap:round;stroke-linejoin:round;stroke-opacity:1;paint-order:stroke fill markers"
       d="m 83.853652,4.529 28.535938,19.578 0.22941,41.451692 c 0.0111,1.99997 -30.788,-25.42766 -30.788,-25.42766 z" />
    <path
       id="rect999-7-6-2"
       style="display:inline;fill:#fab01d;fill-opacity:1;stroke:#1c1117;stroke-width:8.57714;stroke-linecap:round;stroke-linejoin:round;stroke-opacity:1;paint-order:stroke fill markers"
       d="m 4.5295,46.114342 h 79.221217 l 28.868113,23.2447 H 36.203221 Z" />
    <path
       id="rect389-5-0-3"
       style="display:inline;fill:#fadd2b;fill-opacity:1;stroke:#1c1117;stroke-width:8.57715;stroke-linecap:round;stroke-linejoin:round;stroke-opacity:1;paint-order:stroke fill markers"
       d="M 4.5295,4.5295 H 81.83109 V 42.594854 H 4.5295 Z" />
  </g>
  <g
     id="yellow_released-2-7"
     style="display:inline;stroke-width:1.13469"
     transform="matrix(1.0000033,0,0,0.77668457,0.50907438,48.748444)">
    <path
       id="rect1100-6-3-0-5"
       style="display:inline;fill:#fab01d;fill-opacity:1;stroke:#1c1117;stroke-width:8.57714;stroke-linecap:round;stroke-linejoin:round;stroke-opacity:1;paint-order:stroke fill markers"
       d="m 83.853652,4.529 28.535938,19.578 0.22941,41.451692 c 0.0111,1.99997 -30.788,-25.42766 -30.788,-25.42766 z" />
    <path
       id="rect999-7-6-2-9"
       style="display:inline;fill:#fab01d;fill-opacity:1;stroke:#1c1117;stroke-width:8.57714;stroke-linecap:round;stroke-linejoin:round;stroke-opacity:1;paint-order:stroke fill markers"
       d="m 4.5295,46.114342 h 79.221217 l 28.868113,23.2447 H 36.203221 Z" />
    <path
       id="rect389-5-0-3-2"
       style="display:inline;fill:#fadd2b;fill-opacity:1;stroke:#1c1117;stroke-width:8.57715;stroke-linecap:round;stroke-linejoin:round;stroke-opacity:1;paint-order:stroke fill markers"
       d="M 4.5295,4.5295 H 81.83109 V 42.594854 H 4.5295 Z" />
  </g>
  <g
     id="yellow_released-2-7-2"
     style="display:inline;stroke-width:1.13469"
     transform="matrix(1.0000033,0,0,0.77668457,0.50907438,98.126331)">
    <path
       id="rect1100-6-3-0-5-8"
       style="display:inline;fill:#fab01d;fill-opacity:1;stroke:#1c1117;stroke-width:8.57714;stroke-linecap:round;stroke-linejoin:round;stroke-opacity:1;paint-order:stroke fill markers"
       d="m 83.853652,4.529 28.535938,19.578 0.22941,41.451692 c 0.0111,1.99997 -30.788,-25.42766 -30.788,-25.42766 z" />
    <path
       id="rect999-7-6-2-9-9"
       style="display:inline;fill:#fab01d;fill-opacity:1;stroke:#1c1117;stroke-width:8.57714;stroke-linecap:round;stroke-linejoin:round;stroke-opacity:1;paint-order:stroke fill markers"
       d="m 4.5295,46.114342 h 79.221217 l 28.868113,23.2447 H 36.203221 Z" />
    <path
       id="rect389-5-0-3-2-7"
       style="display:inline;fill:#fadd2b;fill-opacity:1;stroke:#1c1117;stroke-width:8.57715;stroke-linecap:round;stroke-linejoin:round;stroke-opacity:1;paint-order:stroke fill markers"
       d="M 4.5295,4.5295 H 81.83109 V 42.594854 H 4.5295 Z" />
  </g>
  <g
     id="yellow_released-2-7-2-3"
     style="display:inline;stroke-width:1.13469"
     transform="matrix(1.0000033,0,0,0.77668457,0.50907438,143.92967)">
    <path
       id="rect1100-6-3-0-5-8-6"
       style="display:inline;fill:#fab01d;fill-opacity:1;stroke:#1c1117;stroke-width:8.57714;stroke-linecap:round;stroke-linejoin:round;stroke-opacity:1;paint-order:stroke fill markers"
       d="m 83.853652,4.529 28.535938,19.578 0.22941,41.451692 c 0.0111,1.99997 -30.788,-25.42766 -30.788,-25.42766 z" />
    <path
       id="rect999-7-6-2-9-9-1"
       style="display:inline;fill:#fab01d;fill-opacity:1;stroke:#1c1117;stroke-width:8.57714;stroke-linecap:round;stroke-linejoin:round;stroke-opacity:1;paint-order:stroke fill markers"
       d="m 4.5295,46.114342 h 79.221217 l 28.868113,23.2447 H 36.203221 Z" />
    <path
       id="rect389-5-0-3-2-7-2"
       style="display:inline;fill:#fadd2b;fill-opacity:1;stroke:#1c1117;stroke-width:8.57715;stroke-linecap:round;stroke-linejoin:round;stroke-opacity:1;paint-order:stroke fill markers"
       d="M 4.5295,4.5295 H 81.83109 V 42.594854 H 4.5295 Z" />
  </g>
  <g
     id="yellow_released-2-7-2-3-9"
     style="display:inline;stroke-width:1.13469"
     transform="matrix(1.0000033,0,0,0.77668457,0.50907438,190.89658)">
    <path
       id="rect1100-6-3-0-5-8-6-3"
       style="display:inline;fill:#fab01d;fill-opacity:1;stroke:#1c1117;stroke-width:8.57714;stroke-linecap:round;stroke-linejoin:round;stroke-opacity:1;paint-order:stroke fill markers"
       d="m 83.853652,4.529 28.535938,19.578 0.22941,41.451692 c 0.0111,1.99997 -30.788,-25.42766 -30.788,-25.42766 z" />
    <path
       id="rect999-7-6-2-9-9-1-1"
       style="display:inline;fill:#fab01d;fill-opacity:1;stroke:#1c1117;stroke-width:8.57714;stroke-linecap:round;stroke-linejoin:round;stroke-opacity:1;paint-order:stroke fill markers"
       d="m 4.5295,46.114342 h 79.221217 l 28.868113,23.2447 H 36.203221 Z" />
    <path
       id="rect389-5-0-3-2-7-2-9"
       style="display:inline;fill:#fadd2b;fill-opacity:1;stroke:#1c1117;stroke-width:8.57715;stroke-linecap:round;stroke-linejoin:round;stroke-opacity:1;paint-order:stroke fill markers"
       d="M 4.5295,4.5295 H 81.83109 V 42.594854 H 4.5295 Z" />
  </g>
  <g
     id="yellow_released-2-7-2-3-9-4"
     style="display:inline;stroke-width:1.13469"
     transform="matrix(1.0000033,0,0,0.77668457,0.50907438,238.14082)">
    <path
       id="rect1100-6-3-0-5-8-6-3-7"
       style="display:inline;fill:#fab01d;fill-opacity:1;stroke:#1c1117;stroke-width:8.57714;stroke-linecap:round;stroke-linejoin:round;stroke-opacity:1;paint-order:stroke fill markers"
       d="m 83.853652,4.529 28.535938,19.578 0.22941,41.451692 c 0.0111,1.99997 -30.788,-25.42766 -30.788,-25.42766 z" />
    <path
       id="rect999-7-6-2-9-9-1-1-8"
       style="display:inline;fill:#fab01d;fill-opacity:1;stroke:#1c1117;stroke-width:8.57714;stroke-linecap:round;stroke-linejoin:round;stroke-opacity:1;paint-order:stroke fill markers"
       d="m 4.5295,46.114342 h 79.221217 l 28.868113,23.2447 H 36.203221 Z" />
    <path
       id="rect389-5-0-3-2-7-2-9-4"
       style="display:inline;fill:#fadd2b;fill-opacity:1;stroke:#1c1117;stroke-width:8.57715;stroke-linecap:round;stroke-linejoin:round;stroke-opacity:1;paint-order:stroke fill markers"
       d="M 4.5295,4.5295 H 81.83109 V 42.594854 H 4.5295 Z" />
  </g>
  <g
     id="yellow_released-2-7-2-3-9-4-5"
     style="display:inline;stroke-width:1.13469"
     transform="matrix(1.0000033,0,0,0.77668457,0.50907438,287.85448)">
    <path
       id="rect1100-6-3-0-5-8-6-3-7-0"
       style="display:inline;fill:#fab01d;fill-opacity:1;stroke:#1c1117;stroke-width:8.57714;stroke-linecap:round;stroke-linejoin:round;stroke-opacity:1;paint-order:stroke fill markers"
       d="m 83.853652,4.529 28.535938,19.578 0.22941,41.451692 c 0.0111,1.99997 -30.788,-25.42766 -30.788,-25.42766 z" />
    <path
       id="rect999-7-6-2-9-9-1-1-8-3"
       style="display:inline;fill:#fab01d;fill-opacity:1;stroke:#1c1117;stroke-width:8.57714;stroke-linecap:round;stroke-linejoin:round;stroke-opacity:1;paint-order:stroke fill markers"
       d="m 4.5295,46.114342 h 79.221217 l 28.868113,23.2447 H 36.203221 Z" />
    <path
       id="rect389-5-0-3-2-7-2-9-4-6"
       style="display:inline;fill:#fadd2b;fill-opacity:1;stroke:#1c1117;stroke-width:8.57715;stroke-linecap:round;stroke-linejoin:round;stroke-opacity:1;paint-order:stroke fill markers"
       d="M 4.5295,4.5295 H 81.83109 V 42.594854 H 4.5295 Z" />
  </g>
  <g
     id="yellow_released"
     style="display:inline;stroke-width:1.13469"
     transform="matrix(1.0000033,0,0,0.77668457,0.50906502,334.77599)">
    <path
       id="rect1100-6-3"
       style="display:inline;fill:#fab01d;fill-opacity:1;stroke:#1c1117;stroke-width:8.57714;stroke-linecap:round;stroke-linejoin:round;stroke-opacity:1;paint-order:stroke fill markers"
       d="m 83.853652,4.529 28.535938,19.578 0.22941,41.451692 c 0.0111,1.99997 -30.788,-25.42766 -30.788,-25.42766 z" />
    <path
       id="rect999-7-6"
       style="display:inline;fill:#fab01d;fill-opacity:1;stroke:#1c1117;stroke-width:8.57714;stroke-linecap:round;stroke-linejoin:round;stroke-opacity:1;paint-order:stroke fill markers"
       d="m 4.5295,46.114342 h 79.221217 l 28.868113,23.2447 H 36.203221 Z" />
    <path
       id="rect389-5-0"
       style="display:inline;fill:#fadd2b;fill-opacity:1;stroke:#1c1117;stroke-width:8.57715;stroke-linecap:round;stroke-linejoin:round;stroke-opacity:1;paint-order:stroke fill markers"
       d="M 4.5295,4.5295 H 81.83109 V 42.594854 H 4.5295 Z" />
  </g>
</svg>
