<?xml version="1.0" encoding="UTF-8" standalone="no"?>
<!-- Created with Inkscape (http://www.inkscape.org/) -->

<svg
   version="1.1"
   id="svg222"
   width="120"
   height="392.72699"
   viewBox="0 0 120 392.72699"
   xmlns="http://www.w3.org/2000/svg"
   xmlns:svg="http://www.w3.org/2000/svg">
  <!-- xmlns:svg="http://www.w3.org/2000/svg" -->
  <defs
     id="defs226" />
  <g
     id="red_released-0"
     style="display:inline;stroke-width:0.944618"
     transform="matrix(1,0,0,1.1206954,5.0144196e-6,-0.54644258)">
    <path
       id="rect1100-6-3-9"
       style="display:inline;fill:#cf396d;fill-opacity:1;stroke:#1c1117;stroke-width:7.14039;stroke-linecap:round;stroke-linejoin:round;stroke-opacity:1;paint-order:stroke fill markers"
       d="M 83.853652,4.529 112.38959,24.107 112.619,89.063134 C 112.626,91.063121 81.831,63.635471 81.831,63.635471 Z" />
    <path
       id="rect999-7-6-3"
       style="display:inline;fill:#cf396d;fill-opacity:1;stroke:#1c1117;stroke-width:7.14039;stroke-linecap:round;stroke-linejoin:round;stroke-opacity:1;paint-order:stroke fill markers"
       d="M 4.5295,68.862044 H 83.750717 L 112.61883,92.106742 H 36.203221 Z" />
    <path
       id="rect389-5-0-6"
       style="display:inline;fill:#da4565;fill-opacity:1;stroke:#1c1117;stroke-width:7.14038;stroke-linecap:round;stroke-linejoin:round;stroke-opacity:1;paint-order:stroke fill markers"
       d="M 4.5295,4.5295 H 81.83109 V 65.40724 H 4.5295 Z" />
  </g>
  <g
     id="red_released-0-0"
     style="display:inline;stroke-width:0.944618"
     transform="matrix(1,0,0,1.1206954,5.0144196e-6,98.107616)">
    <path
       id="rect1100-6-3-9-6"
       style="display:inline;fill:#cf396d;fill-opacity:1;stroke:#1c1117;stroke-width:7.14039;stroke-linecap:round;stroke-linejoin:round;stroke-opacity:1;paint-order:stroke fill markers"
       d="M 83.853652,4.529 112.38959,24.107 112.619,89.063134 C 112.626,91.063121 81.831,63.635471 81.831,63.635471 Z" />
    <path
       id="rect999-7-6-3-2"
       style="display:inline;fill:#cf396d;fill-opacity:1;stroke:#1c1117;stroke-width:7.14039;stroke-linecap:round;stroke-linejoin:round;stroke-opacity:1;paint-order:stroke fill markers"
       d="M 4.5295,68.862044 H 83.750717 L 112.61883,92.106742 H 36.203221 Z" />
    <path
       id="rect389-5-0-6-6"
       style="display:inline;fill:#da4565;fill-opacity:1;stroke:#1c1117;stroke-width:7.14038;stroke-linecap:round;stroke-linejoin:round;stroke-opacity:1;paint-order:stroke fill markers"
       d="M 4.5295,4.5295 H 81.83109 V 65.40724 H 4.5295 Z" />
  </g>
  <g
     id="red_released-0-0-1"
     style="display:inline;stroke-width:0.944618"
     transform="matrix(1,0,0,1.1206954,5.0144195e-6,196.60216)">
    <path
       id="rect1100-6-3-9-6-8"
       style="display:inline;fill:#cf396d;fill-opacity:1;stroke:#1c1117;stroke-width:7.14039;stroke-linecap:round;stroke-linejoin:round;stroke-opacity:1;paint-order:stroke fill markers"
       d="M 83.853652,4.529 112.38959,24.107 112.619,89.063134 C 112.626,91.063121 81.831,63.635471 81.831,63.635471 Z" />
    <path
       id="rect999-7-6-3-2-7"
       style="display:inline;fill:#cf396d;fill-opacity:1;stroke:#1c1117;stroke-width:7.14039;stroke-linecap:round;stroke-linejoin:round;stroke-opacity:1;paint-order:stroke fill markers"
       d="M 4.5295,68.862044 H 83.750717 L 112.61883,92.106742 H 36.203221 Z" />
    <path
       id="rect389-5-0-6-6-9"
       style="display:inline;fill:#da4565;fill-opacity:1;stroke:#1c1117;stroke-width:7.14038;stroke-linecap:round;stroke-linejoin:round;stroke-opacity:1;paint-order:stroke fill markers"
       d="M 4.5295,4.5295 H 81.83109 V 65.40724 H 4.5295 Z" />
  </g>
  <g
     id="red_released"
     style="display:inline;stroke-width:1"
     transform="translate(1e-5,296.09119)">
    <path
       id="rect1100-6-3"
       style="display:inline;fill:#cf396d;fill-opacity:1;stroke:#1c1117;stroke-width:7.55902;stroke-linecap:round;stroke-linejoin:round;stroke-opacity:1;paint-order:stroke fill markers"
       d="M 83.853652,4.529 112.38959,24.107 112.619,89.063134 C 112.626,91.063121 81.831,63.635471 81.831,63.635471 Z" />
    <path
       id="rect999-7-6"
       style="display:inline;fill:#cf396d;fill-opacity:1;stroke:#1c1117;stroke-width:7.55902;stroke-linecap:round;stroke-linejoin:round;stroke-opacity:1;paint-order:stroke fill markers"
       d="M 4.5295,68.862044 H 83.750717 L 112.61883,92.106742 H 36.203221 Z" />
    <path
       id="rect389-5-0"
       style="display:inline;fill:#da4565;fill-opacity:1;stroke:#1c1117;stroke-width:7.55901;stroke-linecap:round;stroke-linejoin:round;stroke-opacity:1;paint-order:stroke fill markers"
       d="M 4.5295,4.5295 H 81.83109 V 65.40724 H 4.5295 Z" />
  </g>
</svg>
