<?xml version="1.0" encoding="UTF-8" standalone="no"?>
<!-- Created with Inkscape (http://www.inkscape.org/) -->

<svg
   width="62.549999mm"
   height="15.74mm"
   viewBox="0 0 62.549999 15.74"
   version="1.1"
   id="svg15620"
   xmlns="http://www.w3.org/2000/svg"
   xmlns:svg="http://www.w3.org/2000/svg">
  <defs
     id="defs15617" />
  <g
     id="layer1"
     transform="translate(-93.465,-128.75)">
    <g
       class="com.sun.star.drawing.PolyPolygonShape"
       id="g2471"
       transform="matrix(0.01,0,0,0.01,5.185,62.27)">
       <g
   id="id131">
        <rect
   class="BoundingBox"
   stroke="none"
   fill="none"
   x="8828"
   y="6967"
   width="203"
   height="870"
   id="rect2468" />

       </g>

      </g>
    <g
       class="com.sun.star.drawing.PolyPolygonShape"
       id="g2478"
       transform="matrix(0.01,0,0,0.01,5.185,62.27)">
       <g
   id="id132">
        <rect
   class="BoundingBox"
   stroke="none"
   fill="none"
   x="8912"
   y="6967"
   width="35"
   height="870"
   id="rect2473" />

        <path
   fill="#000000"
   stroke="none"
   d="m 8946,7836 h -34 v -869 h 34 z"
   id="path2475" />

       </g>

      </g>
    <g
       class="com.sun.star.drawing.PolyPolygonShape"
       id="g2504"
       transform="matrix(0.01,0,0,0.01,5.185,62.27)">
       <g
   id="id136">
        <rect
   class="BoundingBox"
   stroke="none"
   fill="none"
   x="8944"
   y="6648"
   width="6054"
   height="1485"
   id="rect2501" />

       </g>

      </g>
    <g
       class="com.sun.star.drawing.PolyPolygonShape"
       id="g2511"
       transform="matrix(0.01,0,0,0.01,5.185,62.27)">
       <g
   id="id137">
        <rect
   class="BoundingBox"
   stroke="none"
   fill="none"
   x="8908"
   y="7814"
   width="6055"
   height="23"
   id="rect2506" />

        <path
   fill="#000000"
   stroke="none"
   d="m 8909,7814 h 6053 v 22 H 8909 Z"
   id="path2508" />

       </g>

      </g>
    <g
       class="com.sun.star.drawing.PolyPolygonShape"
       id="g2518"
       transform="matrix(0.01,0,0,0.01,5.185,62.27)">
       <g
   id="id138">
        <rect
   class="BoundingBox"
   stroke="none"
   fill="none"
   x="8908"
   y="7602"
   width="6055"
   height="23"
   id="rect2513" />

        <path
   fill="#000000"
   stroke="none"
   d="m 8909,7602 h 6053 v 22 H 8909 Z"
   id="path2515" />

       </g>

      </g>
    <g
       class="com.sun.star.drawing.PolyPolygonShape"
       id="g2525"
       transform="matrix(0.01,0,0,0.01,5.185,62.27)">
       <g
   id="id139">
        <rect
   class="BoundingBox"
   stroke="none"
   fill="none"
   x="8908"
   y="7390"
   width="6055"
   height="23"
   id="rect2520" />

        <path
   fill="#000000"
   stroke="none"
   d="m 8909,7390 h 6053 v 22 H 8909 Z"
   id="path2522" />

       </g>

      </g>
    <g
       class="com.sun.star.drawing.PolyPolygonShape"
       id="g2532"
       transform="matrix(0.01,0,0,0.01,5.185,62.27)">
       <g
   id="id140">
        <rect
   class="BoundingBox"
   stroke="none"
   fill="none"
   x="8908"
   y="7179"
   width="6055"
   height="23"
   id="rect2527" />

        <path
   fill="#000000"
   stroke="none"
   d="m 8909,7179 h 6053 v 22 H 8909 Z"
   id="path2529" />

       </g>

      </g>
    <g
       class="com.sun.star.drawing.PolyPolygonShape"
       id="g2539"
       transform="matrix(0.01,0,0,0.01,5.185,62.27)">
       <g
   id="id141">
        <rect
   class="BoundingBox"
   stroke="none"
   fill="none"
   x="8908"
   y="6967"
   width="6055"
   height="23"
   id="rect2534" />

        <path
   fill="#000000"
   stroke="none"
   d="m 8909,6967 h 6053 v 22 H 8909 Z"
   id="path2536" />

       </g>

      </g>
    <g
       class="com.sun.star.drawing.PolyPolygonShape"
       id="g2546"
       transform="matrix(0.01,0,0,0.01,5.185,62.27)">
       <g
   id="id142">
        <rect
   class="BoundingBox"
   stroke="none"
   fill="none"
   x="9446"
   y="7073"
   width="39"
   height="700"
   id="rect2541" />

        <path
   fill="#fef401"
   stroke="none"
   d="m 9446,7073 h 38 v 699 h -38 z"
   id="path2543" />

       </g>

      </g>
    <g
       class="com.sun.star.drawing.PolyPolygonShape"
       id="g2551"
       transform="matrix(0.01,0,0,0.01,5.185,62.27)">
       <g
   id="id143">
        <rect
   class="BoundingBox"
   stroke="none"
   fill="none"
   x="9357"
   y="7073"
   width="216"
   height="877"
   id="rect2548" />

       </g>

      </g>
    <g
       class="com.sun.star.drawing.PolyPolygonShape"
       id="g2556"
       transform="matrix(0.01,0,0,0.01,5.185,62.27)">
       <g
   id="id144">
        <rect
   class="BoundingBox"
   stroke="none"
   fill="none"
   x="9124"
   y="7619"
   width="447"
   height="391"
   id="rect2553" />

       </g>

      </g>
    <g
       class="com.sun.star.drawing.ClosedBezierShape"
       id="g2563"
       transform="matrix(0.01,0,0,0.01,5.185,62.27)">
       <g
   id="id145">
        <rect
   class="BoundingBox"
   stroke="none"
   fill="none"
   x="9209"
   y="7703"
   width="277"
   height="223"
   id="rect2558" />

        <path
   fill="#fef401"
   stroke="none"
   d="m 9485,7781 c -3,40 -23,73 -61,100 -38,28 -79,42 -121,44 -27,-1 -49,-8 -66,-22 -17,-14 -28,-34 -28,-58 2,-37 24,-70 61,-97 37,-28 75,-43 114,-45 31,0 55,6 72,20 19,12 28,31 29,58 z"
   id="path2560" />

       </g>

      </g>
    <g
       class="com.sun.star.drawing.PolyPolygonShape"
       id="g2570"
       transform="matrix(0.01,0,0,0.01,5.185,62.27)">
       <g
   id="id146">
        <rect
   class="BoundingBox"
   stroke="none"
   fill="none"
   x="10291"
   y="7073"
   width="40"
   height="700"
   id="rect2565" />

        <path
   fill="#fef401"
   stroke="none"
   d="m 10292,7073 h 38 v 699 h -38 z"
   id="path2567" />

       </g>

      </g>
    <g
       class="com.sun.star.drawing.PolyPolygonShape"
       id="g2575"
       transform="matrix(0.01,0,0,0.01,5.185,62.27)">
       <g
   id="id147">
        <rect
   class="BoundingBox"
   stroke="none"
   fill="none"
   x="10204"
   y="7073"
   width="215"
   height="877"
   id="rect2572" />

       </g>

      </g>
    <g
       class="com.sun.star.drawing.PolyPolygonShape"
       id="g2580"
       transform="matrix(0.01,0,0,0.01,5.185,62.27)">
       <g
   id="id148">
        <rect
   class="BoundingBox"
   stroke="none"
   fill="none"
   x="9969"
   y="7619"
   width="448"
   height="391"
   id="rect2577" />

       </g>

      </g>
    <g
       class="com.sun.star.drawing.ClosedBezierShape"
       id="g2587"
       transform="matrix(0.01,0,0,0.01,5.185,62.27)">
       <g
   id="id149">
        <rect
   class="BoundingBox"
   stroke="none"
   fill="none"
   x="10055"
   y="7703"
   width="278"
   height="223"
   id="rect2582" />

        <path
   fill="#fef401"
   stroke="none"
   d="m 10331,7781 c -3,40 -24,73 -61,100 -39,28 -79,42 -122,44 -27,-1 -48,-8 -65,-22 -18,-14 -27,-34 -28,-58 3,-37 23,-70 60,-97 37,-28 75,-43 115,-45 31,0 55,6 72,20 19,12 29,31 29,58 z"
   id="path2584" />

       </g>

      </g>
    <g
       class="com.sun.star.drawing.PolyPolygonShape"
       id="g2592"
       transform="matrix(0.01,0,0,0.01,5.185,62.27)">
       <g
   id="id150">
        <rect
   class="BoundingBox"
   stroke="none"
   fill="none"
   x="10817"
   y="7094"
   width="391"
   height="563"
   id="rect2589" />

       </g>

      </g>
    <g
       class="com.sun.star.drawing.ClosedBezierShape"
       id="g2599"
       transform="matrix(0.01,0,0,0.01,5.185,62.27)">
       <g
   id="id151">
        <rect
   class="BoundingBox"
   stroke="none"
   fill="none"
   x="10901"
   y="7179"
   width="223"
   height="393"
   id="rect2594" />

        <path
   fill="#000000"
   stroke="none"
   d="m 11015,7259 -2,9 c 4,10 11,12 21,7 34,-16 58,-40 74,-73 h 15 l -102,369 h -30 l 82,-289 c -29,19 -60,29 -92,32 -21,-1 -40,-7 -55,-20 -15,-13 -23,-29 -25,-50 1,-35 18,-56 52,-64 18,-3 33,1 46,12 13,12 19,26 20,46 z"
   id="path2596" />

       </g>

      </g>
    <g
       class="com.sun.star.drawing.PolyPolygonShape"
       id="g2606"
       transform="matrix(0.01,0,0,0.01,5.185,62.27)">
       <g
   id="id152">
        <rect
   class="BoundingBox"
   stroke="none"
   fill="none"
   x="11985"
   y="7284"
   width="39"
   height="701"
   id="rect2601" />

        <path
   fill="#e52343"
   stroke="none"
   d="m 11985,7284 h 38 v 700 h -38 z"
   id="path2603" />

       </g>

      </g>
    <g
       class="com.sun.star.drawing.PolyPolygonShape"
       id="g2611"
       transform="matrix(0.01,0,0,0.01,5.185,62.27)">
       <g
   id="id153">
        <rect
   class="BoundingBox"
   stroke="none"
   fill="none"
   x="11897"
   y="7284"
   width="215"
   height="877"
   id="rect2608" />

       </g>

      </g>
    <g
       class="com.sun.star.drawing.PolyPolygonShape"
       id="g2616"
       transform="matrix(0.01,0,0,0.01,5.185,62.27)">
       <g
   id="id154">
        <rect
   class="BoundingBox"
   stroke="none"
   fill="none"
   x="11910"
   y="7284"
   width="403"
   height="637"
   id="rect2613" />

       </g>

      </g>
    <g
       class="com.sun.star.drawing.ClosedBezierShape"
       id="g2623"
       transform="matrix(0.01,0,0,0.01,5.185,62.27)">
       <g
   id="id155">
        <rect
   class="BoundingBox"
   stroke="none"
   fill="none"
   x="11996"
   y="7284"
   width="232"
   height="637"
   id="rect2618" />

        <path
   fill="#e52343"
   stroke="none"
   d="m 12227,7697 c 0,45 -9,87 -25,127 l -48,96 h -12 l 37,-87 c 13,-36 20,-74 20,-114 -2,-48 -18,-91 -48,-129 -16,-21 -36,-39 -60,-53 -25,-14 -49,-22 -73,-25 v 17 h -22 v -245 h 22 l 11,71 c 5,26 18,53 40,80 l 98,110 c 37,45 57,96 60,152 z"
   id="path2620" />

       </g>

      </g>
    <g
       class="com.sun.star.drawing.PolyPolygonShape"
       id="g2630"
       transform="matrix(0.01,0,0,0.01,5.185,62.27)">
       <g
   id="id156">
        <rect
   class="BoundingBox"
   stroke="none"
   fill="none"
   x="11691"
   y="8011"
   width="402"
   height="29"
   id="rect2625" />

        <path
   fill="#e52343"
   stroke="none"
   d="m 11691,8012 h 401 v 27 h -401 z"
   id="path2627" />

       </g>

      </g>
    <g
       class="com.sun.star.drawing.PolyPolygonShape"
       id="g2635"
       transform="matrix(0.01,0,0,0.01,5.185,62.27)">
       <g
   id="id157">
        <rect
   class="BoundingBox"
   stroke="none"
   fill="none"
   x="11663"
   y="7830"
   width="447"
   height="392"
   id="rect2632" />

       </g>

      </g>
    <g
       class="com.sun.star.drawing.ClosedBezierShape"
       id="g2642"
       transform="matrix(0.01,0,0,0.01,5.185,62.27)">
       <g
   id="id158">
        <rect
   class="BoundingBox"
   stroke="none"
   fill="none"
   x="11748"
   y="7915"
   width="277"
   height="223"
   id="rect2637" />

        <path
   fill="#e52343"
   stroke="none"
   d="m 12024,7992 c -3,40 -23,73 -60,101 -40,27 -81,42 -123,43 -27,0 -49,-8 -66,-21 -17,-15 -26,-34 -27,-58 3,-38 23,-70 60,-97 37,-29 75,-43 115,-45 31,-1 56,6 72,19 19,12 28,32 29,58 z"
   id="path2639" />

       </g>

      </g>
    <g
       class="com.sun.star.drawing.PolyPolygonShape"
       id="g2649"
       transform="matrix(0.01,0,0,0.01,5.185,62.27)">
       <g
   id="id159">
        <rect
   class="BoundingBox"
   stroke="none"
   fill="none"
   x="12831"
   y="7179"
   width="39"
   height="700"
   id="rect2644" />

        <path
   fill="#fa9d01"
   stroke="none"
   d="m 12831,7179 h 38 v 699 h -38 z"
   id="path2646" />

       </g>

      </g>
    <g
       class="com.sun.star.drawing.PolyPolygonShape"
       id="g2654"
       transform="matrix(0.01,0,0,0.01,5.185,62.27)">
       <g
   id="id160">
        <rect
   class="BoundingBox"
   stroke="none"
   fill="none"
   x="12743"
   y="7179"
   width="216"
   height="876"
   id="rect2651" />

       </g>

      </g>
    <g
       class="com.sun.star.drawing.PolyPolygonShape"
       id="g2659"
       transform="matrix(0.01,0,0,0.01,5.185,62.27)">
       <g
   id="id161">
        <rect
   class="BoundingBox"
   stroke="none"
   fill="none"
   x="12510"
   y="7725"
   width="447"
   height="391"
   id="rect2656" />

       </g>

      </g>
    <g
       class="com.sun.star.drawing.ClosedBezierShape"
       id="g2666"
       transform="matrix(0.01,0,0,0.01,5.185,62.27)">
       <g
   id="id162">
        <rect
   class="BoundingBox"
   stroke="none"
   fill="none"
   x="12594"
   y="7809"
   width="277"
   height="223"
   id="rect2661" />

        <path
   fill="#fa9d01"
   stroke="none"
   d="m 12870,7888 c -2,38 -22,72 -60,99 -40,28 -80,42 -123,43 -26,0 -48,-7 -65,-21 -18,-15 -27,-34 -28,-58 3,-37 23,-69 61,-96 36,-28 74,-43 114,-46 32,0 56,7 73,20 18,12 28,32 28,59 z"
   id="path2663" />

       </g>

      </g>
    <g
       class="com.sun.star.drawing.PolyPolygonShape"
       id="g2673"
       transform="matrix(0.01,0,0,0.01,5.185,62.27)">
       <g
   id="id163">
        <rect
   class="BoundingBox"
   stroke="none"
   fill="none"
   x="14015"
   y="7073"
   width="40"
   height="700"
   id="rect2668" />

        <path
   fill="#fef401"
   stroke="none"
   d="m 14016,7073 h 38 v 699 h -38 z"
   id="path2670" />

       </g>

      </g>
    <g
       class="com.sun.star.drawing.PolyPolygonShape"
       id="g2678"
       transform="matrix(0.01,0,0,0.01,5.185,62.27)">
       <g
   id="id164">
        <rect
   class="BoundingBox"
   stroke="none"
   fill="none"
   x="13928"
   y="7073"
   width="216"
   height="877"
   id="rect2675" />

       </g>

      </g>
    <g
       class="com.sun.star.drawing.PolyPolygonShape"
       id="g2683"
       transform="matrix(0.01,0,0,0.01,5.185,62.27)">
       <g
   id="id165">
        <rect
   class="BoundingBox"
   stroke="none"
   fill="none"
   x="13695"
   y="7619"
   width="447"
   height="391"
   id="rect2680" />

       </g>

      </g>
    <g
       class="com.sun.star.drawing.ClosedBezierShape"
       id="g2690"
       transform="matrix(0.01,0,0,0.01,5.185,62.27)">
       <g
   id="id166">
        <rect
   class="BoundingBox"
   stroke="none"
   fill="none"
   x="13779"
   y="7703"
   width="277"
   height="223"
   id="rect2685" />

        <path
   fill="#fef401"
   stroke="none"
   d="m 14055,7781 c -2,40 -22,73 -60,100 -39,28 -79,42 -123,44 -26,-1 -48,-8 -65,-22 -18,-14 -27,-34 -28,-58 3,-37 23,-70 61,-97 36,-28 75,-43 115,-45 31,0 55,6 72,20 18,12 28,31 28,58 z"
   id="path2687" />

       </g>

      </g>
    <g
       class="com.sun.star.drawing.PolyPolygonShape"
       id="g2695"
       transform="matrix(0.01,0,0,0.01,5.185,62.27)">
       <g
   id="id167">
        <rect
   class="BoundingBox"
   stroke="none"
   fill="none"
   x="14880"
   y="6967"
   width="203"
   height="870"
   id="rect2692" />

       </g>

      </g>
    <g
       class="com.sun.star.drawing.PolyPolygonShape"
       id="g2702"
       transform="matrix(0.01,0,0,0.01,5.185,62.27)">
       <g
   id="id168">
        <rect
   class="BoundingBox"
   stroke="none"
   fill="none"
   x="14964"
   y="6967"
   width="34"
   height="870"
   id="rect2697" />

        <path
   fill="#000000"
   stroke="none"
   d="m 14997,7836 h -33 v -869 h 33 z"
   id="path2699" />

       </g>

      </g>
    <g
       class="com.sun.star.drawing.PolyPolygonShape"
       id="g2709"
       transform="matrix(0.01,0,0,0.01,5.185,62.27)">
       <g
   id="id169">
        <rect
   class="BoundingBox"
   stroke="none"
   fill="none"
   x="9483"
   y="7072"
   width="848"
   height="109"
   id="rect2704" />

        <path
   fill="#fef401"
   stroke="none"
   d="m 9483,7073 v 107 h 847 v -107 z"
   id="path2706" />

       </g>

      </g>
  </g>
</svg>
