<?xml version="1.0" encoding="UTF-8" standalone="no"?>
<!-- Created with Inkscape (http://www.inkscape.org/) -->

<svg
   width="95.989998mm"
   height="15.72mm"
   viewBox="0 0 95.989998 15.72"
   version="1.1"
   id="svg10074"
   xmlns="http://www.w3.org/2000/svg"
   xmlns:svg="http://www.w3.org/2000/svg">
  <defs
     id="defs10071" />
  <g
     id="layer1"
     transform="translate(-45.263,-74.706)">
    <g
       class="com.sun.star.drawing.PolyPolygonShape"
       id="g1924"
       transform="matrix(0.01,0,0,0.01,-63.517,36.256)">
       <g
   id="id44">
        <rect
   class="BoundingBox"
   stroke="none"
   fill="none"
   x="10878"
   y="4162"
   width="204"
   height="870"
   id="rect1921" />

       </g>

      </g>
    <g
       class="com.sun.star.drawing.PolyPolygonShape"
       id="g1931"
       transform="matrix(0.01,0,0,0.01,-63.517,36.256)">
       <g
   id="id45">
        <rect
   class="BoundingBox"
   stroke="none"
   fill="none"
   x="10963"
   y="4162"
   width="35"
   height="870"
   id="rect1926" />

        <path
   fill="#000000"
   stroke="none"
   d="m 10996,5031 h -33 v -869 h 33 z"
   id="path1928" />

       </g>

      </g>
    <g
       class="com.sun.star.drawing.PolyPolygonShape"
       id="g1936"
       transform="matrix(0.01,0,0,0.01,-63.517,36.256)">
       <g
   id="id46">
        <rect
   class="BoundingBox"
   stroke="none"
   fill="none"
   x="10995"
   y="3845"
   width="9397"
   height="1483"
   id="rect1933" />

       </g>

      </g>
    <g
       class="com.sun.star.drawing.PolyPolygonShape"
       id="g1943"
       transform="matrix(0.01,0,0,0.01,-63.517,36.256)">
       <g
   id="id47">
        <rect
   class="BoundingBox"
   stroke="none"
   fill="none"
   x="10960"
   y="5009"
   width="9397"
   height="23"
   id="rect1938" />

        <path
   fill="#000000"
   stroke="none"
   d="m 10960,5009 h 9396 v 22 h -9396 z"
   id="path1940" />

       </g>

      </g>
    <g
       class="com.sun.star.drawing.PolyPolygonShape"
       id="g1950"
       transform="matrix(0.01,0,0,0.01,-63.517,36.256)">
       <g
   id="id48">
        <rect
   class="BoundingBox"
   stroke="none"
   fill="none"
   x="10960"
   y="4797"
   width="9397"
   height="24"
   id="rect1945" />

        <path
   fill="#000000"
   stroke="none"
   d="m 10960,4797 h 9396 v 22 h -9396 z"
   id="path1947" />

       </g>

      </g>
    <g
       class="com.sun.star.drawing.PolyPolygonShape"
       id="g1957"
       transform="matrix(0.01,0,0,0.01,-63.517,36.256)">
       <g
   id="id49">
        <rect
   class="BoundingBox"
   stroke="none"
   fill="none"
   x="10960"
   y="4586"
   width="9397"
   height="23"
   id="rect1952" />

        <path
   fill="#000000"
   stroke="none"
   d="m 10960,4586 h 9396 v 22 h -9396 z"
   id="path1954" />

       </g>

      </g>
    <g
       class="com.sun.star.drawing.PolyPolygonShape"
       id="g1964"
       transform="matrix(0.01,0,0,0.01,-63.517,36.256)">
       <g
   id="id50">
        <rect
   class="BoundingBox"
   stroke="none"
   fill="none"
   x="10960"
   y="4374"
   width="9397"
   height="23"
   id="rect1959" />

        <path
   fill="#000000"
   stroke="none"
   d="m 10960,4374 h 9396 v 22 h -9396 z"
   id="path1961" />

       </g>

      </g>
    <g
       class="com.sun.star.drawing.PolyPolygonShape"
       id="g1971"
       transform="matrix(0.01,0,0,0.01,-63.517,36.256)">
       <g
   id="id51">
        <rect
   class="BoundingBox"
   stroke="none"
   fill="none"
   x="10960"
   y="4162"
   width="9397"
   height="23"
   id="rect1966" />

        <path
   fill="#000000"
   stroke="none"
   d="m 10960,4162 h 9396 v 22 h -9396 z"
   id="path1968" />

       </g>

      </g>
    <g
       class="com.sun.star.drawing.PolyPolygonShape"
       id="g1978"
       transform="matrix(0.01,0,0,0.01,-63.517,36.256)">
       <g
   id="id52">
        <rect
   class="BoundingBox"
   stroke="none"
   fill="none"
   x="11497"
   y="4162"
   width="39"
   height="701"
   id="rect1973" />

        <path
   fill="#33bb33"
   stroke="none"
   d="m 11497,4162 h 38 v 700 h -38 z"
   id="path1975" />

       </g>

      </g>
    <g
       class="com.sun.star.drawing.PolyPolygonShape"
       id="g1983"
       transform="matrix(0.01,0,0,0.01,-63.517,36.256)">
       <g
   id="id53">
        <rect
   class="BoundingBox"
   stroke="none"
   fill="none"
   x="11408"
   y="4161"
   width="216"
   height="878"
   id="rect1980" />

       </g>

      </g>
    <g
       class="com.sun.star.drawing.PolyPolygonShape"
       id="g1988"
       transform="matrix(0.01,0,0,0.01,-63.517,36.256)">
       <g
   id="id54">
        <rect
   class="BoundingBox"
   stroke="none"
   fill="none"
   x="11175"
   y="4708"
   width="446"
   height="392"
   id="rect1985" />

       </g>

      </g>
    <g
       class="com.sun.star.drawing.ClosedBezierShape"
       id="g1995"
       transform="matrix(0.01,0,0,0.01,-63.517,36.256)">
       <g
   id="id55">
        <rect
   class="BoundingBox"
   stroke="none"
   fill="none"
   x="11260"
   y="4793"
   width="277"
   height="223"
   id="rect1990" />

        <path
   fill="#33bb33"
   stroke="none"
   d="m 11536,4870 c -3,39 -23,72 -61,101 -38,27 -80,42 -122,43 -27,-1 -49,-8 -66,-21 -18,-15 -27,-34 -27,-59 2,-37 22,-69 60,-97 37,-28 75,-43 115,-44 31,-1 55,6 72,19 18,12 28,31 29,58 z"
   id="path1992" />

       </g>

      </g>
    <g
       class="com.sun.star.drawing.PolyPolygonShape"
       id="g2002"
       transform="matrix(0.01,0,0,0.01,-63.517,36.256)">
       <g
   id="id56">
        <rect
   class="BoundingBox"
   stroke="none"
   fill="none"
   x="12835"
   y="4162"
   width="39"
   height="701"
   id="rect1997" />

        <path
   fill="#33bb33"
   stroke="none"
   d="m 12835,4162 h 38 v 700 h -38 z"
   id="path1999" />

       </g>

      </g>
    <g
       class="com.sun.star.drawing.PolyPolygonShape"
       id="g2007"
       transform="matrix(0.01,0,0,0.01,-63.517,36.256)">
       <g
   id="id57">
        <rect
   class="BoundingBox"
   stroke="none"
   fill="none"
   x="12746"
   y="4161"
   width="216"
   height="878"
   id="rect2004" />

       </g>

      </g>
    <g
       class="com.sun.star.drawing.PolyPolygonShape"
       id="g2012"
       transform="matrix(0.01,0,0,0.01,-63.517,36.256)">
       <g
   id="id58">
        <rect
   class="BoundingBox"
   stroke="none"
   fill="none"
   x="12513"
   y="4708"
   width="447"
   height="392"
   id="rect2009" />

       </g>

      </g>
    <g
       class="com.sun.star.drawing.ClosedBezierShape"
       id="g2019"
       transform="matrix(0.01,0,0,0.01,-63.517,36.256)">
       <g
   id="id59">
        <rect
   class="BoundingBox"
   stroke="none"
   fill="none"
   x="12598"
   y="4793"
   width="277"
   height="223"
   id="rect2014" />

        <path
   fill="#33bb33"
   stroke="none"
   d="m 12874,4870 c -3,39 -23,72 -61,101 -39,27 -80,42 -122,43 -27,-1 -49,-8 -66,-21 -18,-15 -27,-34 -27,-59 2,-37 22,-69 60,-97 37,-28 75,-43 114,-44 32,-1 56,6 73,19 18,12 28,31 29,58 z"
   id="path2016" />

       </g>

      </g>
    <g
       class="com.sun.star.drawing.PolyPolygonShape"
       id="g2024"
       transform="matrix(0.01,0,0,0.01,-63.517,36.256)">
       <g
   id="id60">
        <rect
   class="BoundingBox"
   stroke="none"
   fill="none"
   x="13851"
   y="4289"
   width="391"
   height="563"
   id="rect2021" />

       </g>

      </g>
    <g
       class="com.sun.star.drawing.ClosedBezierShape"
       id="g2031"
       transform="matrix(0.01,0,0,0.01,-63.517,36.256)">
       <g
   id="id61">
        <rect
   class="BoundingBox"
   stroke="none"
   fill="none"
   x="13936"
   y="4374"
   width="222"
   height="394"
   id="rect2026" />

        <path
   fill="#000000"
   stroke="none"
   d="m 14050,4453 -2,10 c 4,9 11,11 21,6 34,-15 58,-39 74,-72 h 14 l -101,370 h -29 l 81,-290 c -29,18 -60,30 -92,32 -21,0 -40,-7 -56,-21 -15,-12 -23,-29 -24,-49 0,-34 18,-56 52,-64 18,-3 33,1 46,13 13,11 19,26 20,44 z"
   id="path2028" />

       </g>

      </g>
    <g
       class="com.sun.star.drawing.PolyPolygonShape"
       id="g2038"
       transform="matrix(0.01,0,0,0.01,-63.517,36.256)">
       <g
   id="id62">
        <rect
   class="BoundingBox"
   stroke="none"
   fill="none"
   x="15511"
   y="4480"
   width="39"
   height="700"
   id="rect2033" />

        <path
   fill="#e52343"
   stroke="none"
   d="m 15511,4480 h 38 v 699 h -38 z"
   id="path2035" />

       </g>

      </g>
    <g
       class="com.sun.star.drawing.PolyPolygonShape"
       id="g2043"
       transform="matrix(0.01,0,0,0.01,-63.517,36.256)">
       <g
   id="id63">
        <rect
   class="BoundingBox"
   stroke="none"
   fill="none"
   x="15423"
   y="4480"
   width="215"
   height="877"
   id="rect2040" />

       </g>

      </g>
    <g
       class="com.sun.star.drawing.PolyPolygonShape"
       id="g2048"
       transform="matrix(0.01,0,0,0.01,-63.517,36.256)">
       <g
   id="id64">
        <rect
   class="BoundingBox"
   stroke="none"
   fill="none"
   x="15437"
   y="4480"
   width="402"
   height="637"
   id="rect2045" />

       </g>

      </g>
    <g
       class="com.sun.star.drawing.ClosedBezierShape"
       id="g2055"
       transform="matrix(0.01,0,0,0.01,-63.517,36.256)">
       <g
   id="id65">
        <rect
   class="BoundingBox"
   stroke="none"
   fill="none"
   x="15521"
   y="4480"
   width="233"
   height="637"
   id="rect2050" />

        <path
   fill="#e52343"
   stroke="none"
   d="m 15753,4892 c -1,45 -9,87 -25,127 l -48,97 h -13 l 37,-88 c 14,-35 20,-73 20,-113 -2,-48 -18,-91 -47,-129 -16,-22 -37,-40 -61,-54 -24,-14 -48,-23 -71,-26 v 17 h -24 v -243 h 24 l 11,70 c 5,26 18,52 39,79 l 98,110 c 37,46 57,97 60,153 z"
   id="path2052" />

       </g>

      </g>
    <g
       class="com.sun.star.drawing.PolyPolygonShape"
       id="g2062"
       transform="matrix(0.01,0,0,0.01,-63.517,36.256)">
       <g
   id="id66">
        <rect
   class="BoundingBox"
   stroke="none"
   fill="none"
   x="15217"
   y="5206"
   width="402"
   height="30"
   id="rect2057" />

        <path
   fill="#e52343"
   stroke="none"
   d="m 15217,5207 h 400 v 28 h -400 z"
   id="path2059" />

       </g>

      </g>
    <g
       class="com.sun.star.drawing.PolyPolygonShape"
       id="g2067"
       transform="matrix(0.01,0,0,0.01,-63.517,36.256)">
       <g
   id="id67">
        <rect
   class="BoundingBox"
   stroke="none"
   fill="none"
   x="15189"
   y="5026"
   width="446"
   height="391"
   id="rect2064" />

       </g>

      </g>
    <g
       class="com.sun.star.drawing.ClosedBezierShape"
       id="g2074"
       transform="matrix(0.01,0,0,0.01,-63.517,36.256)">
       <g
   id="id68">
        <rect
   class="BoundingBox"
   stroke="none"
   fill="none"
   x="15274"
   y="5111"
   width="277"
   height="223"
   id="rect2069" />

        <path
   fill="#e52343"
   stroke="none"
   d="m 15550,5189 c -3,39 -24,72 -62,99 -38,28 -79,42 -121,44 -27,-1 -49,-8 -66,-21 -17,-15 -27,-35 -27,-59 2,-36 23,-68 60,-97 37,-28 75,-43 114,-44 31,-1 55,5 72,19 20,12 29,31 30,59 z"
   id="path2071" />

       </g>

      </g>
    <g
       class="com.sun.star.drawing.PolyPolygonShape"
       id="g2081"
       transform="matrix(0.01,0,0,0.01,-63.517,36.256)">
       <g
   id="id69">
        <rect
   class="BoundingBox"
   stroke="none"
   fill="none"
   x="16849"
   y="4374"
   width="39"
   height="700"
   id="rect2076" />

        <path
   fill="#fa9d01"
   stroke="none"
   d="m 16849,4374 h 38 v 699 h -38 z"
   id="path2078" />

       </g>

      </g>
    <g
       class="com.sun.star.drawing.PolyPolygonShape"
       id="g2086"
       transform="matrix(0.01,0,0,0.01,-63.517,36.256)">
       <g
   id="id70">
        <rect
   class="BoundingBox"
   stroke="none"
   fill="none"
   x="16761"
   y="4373"
   width="215"
   height="878"
   id="rect2083" />

       </g>

      </g>
    <g
       class="com.sun.star.drawing.PolyPolygonShape"
       id="g2091"
       transform="matrix(0.01,0,0,0.01,-63.517,36.256)">
       <g
   id="id71">
        <rect
   class="BoundingBox"
   stroke="none"
   fill="none"
   x="16527"
   y="4920"
   width="447"
   height="392"
   id="rect2088" />

       </g>

      </g>
    <g
       class="com.sun.star.drawing.ClosedBezierShape"
       id="g2098"
       transform="matrix(0.01,0,0,0.01,-63.517,36.256)">
       <g
   id="id72">
        <rect
   class="BoundingBox"
   stroke="none"
   fill="none"
   x="16612"
   y="5005"
   width="277"
   height="223"
   id="rect2093" />

        <path
   fill="#fa9d01"
   stroke="none"
   d="m 16888,5082 c -3,39 -23,72 -60,100 -39,28 -80,42 -122,44 -27,-1 -49,-8 -66,-21 -18,-15 -28,-36 -28,-60 2,-36 23,-68 61,-96 37,-28 75,-43 114,-44 31,-1 55,5 72,19 19,12 28,31 29,58 z"
   id="path2095" />

       </g>

      </g>
    <g
       class="com.sun.star.drawing.PolyPolygonShape"
       id="g2105"
       transform="matrix(0.01,0,0,0.01,-63.517,36.256)">
       <g
   id="id73">
        <rect
   class="BoundingBox"
   stroke="none"
   fill="none"
   x="18722"
   y="4480"
   width="39"
   height="700"
   id="rect2100" />

        <path
   fill="#e52343"
   stroke="none"
   d="m 18722,4480 h 38 v 699 h -38 z"
   id="path2102" />

       </g>

      </g>
    <g
       class="com.sun.star.drawing.PolyPolygonShape"
       id="g2110"
       transform="matrix(0.01,0,0,0.01,-63.517,36.256)">
       <g
   id="id74">
        <rect
   class="BoundingBox"
   stroke="none"
   fill="none"
   x="18634"
   y="4480"
   width="215"
   height="877"
   id="rect2107" />

       </g>

      </g>
    <g
       class="com.sun.star.drawing.PolyPolygonShape"
       id="g2117"
       transform="matrix(0.01,0,0,0.01,-63.517,36.256)">
       <g
   id="id75">
        <rect
   class="BoundingBox"
   stroke="none"
   fill="none"
   x="18428"
   y="5206"
   width="402"
   height="30"
   id="rect2112" />

        <path
   fill="#e52343"
   stroke="none"
   d="m 18428,5207 h 401 v 28 h -401 z"
   id="path2114" />

       </g>

      </g>
    <g
       class="com.sun.star.drawing.PolyPolygonShape"
       id="g2122"
       transform="matrix(0.01,0,0,0.01,-63.517,36.256)">
       <g
   id="id76">
        <rect
   class="BoundingBox"
   stroke="none"
   fill="none"
   x="18400"
   y="5026"
   width="447"
   height="391"
   id="rect2119" />

       </g>

      </g>
    <g
       class="com.sun.star.drawing.ClosedBezierShape"
       id="g2129"
       transform="matrix(0.01,0,0,0.01,-63.517,36.256)">
       <g
   id="id77">
        <rect
   class="BoundingBox"
   stroke="none"
   fill="none"
   x="18485"
   y="5111"
   width="277"
   height="223"
   id="rect2124" />

        <path
   fill="#e52343"
   stroke="none"
   d="m 18761,5189 c -3,39 -23,72 -60,99 -39,28 -80,42 -122,44 -28,-1 -50,-8 -67,-21 -17,-15 -26,-35 -27,-59 3,-36 23,-68 60,-97 38,-28 76,-43 116,-44 31,-1 55,5 72,19 18,12 27,31 28,59 z"
   id="path2126" />

       </g>

      </g>
    <g
       class="com.sun.star.drawing.PolyPolygonShape"
       id="g2134"
       transform="matrix(0.01,0,0,0.01,-63.517,36.256)">
       <g
   id="id78">
        <rect
   class="BoundingBox"
   stroke="none"
   fill="none"
   x="20274"
   y="4162"
   width="203"
   height="870"
   id="rect2131" />

       </g>

      </g>
    <g
       class="com.sun.star.drawing.PolyPolygonShape"
       id="g2141"
       transform="matrix(0.01,0,0,0.01,-63.517,36.256)">
       <g
   id="id79">
        <rect
   class="BoundingBox"
   stroke="none"
   fill="none"
   x="20358"
   y="4162"
   width="34"
   height="870"
   id="rect2136" />

        <path
   fill="#000000"
   stroke="none"
   d="m 20391,5031 h -33 v -869 h 33 z"
   id="path2138" />

       </g>

      </g>
    <g
       class="com.sun.star.drawing.PolyPolygonShape"
       id="g2148"
       transform="matrix(0.01,0,0,0.01,-63.517,36.256)">
       <g
   id="id80">
        <rect
   class="BoundingBox"
   stroke="none"
   fill="none"
   x="11534"
   y="4162"
   width="1341"
   height="108"
   id="rect2143" />

        <path
   fill="#33bb33"
   stroke="none"
   d="m 11534,4162 v 107 h 1339 v -107 z"
   id="path2145" />

       </g>

      </g>
  </g>
</svg>
