<?xml version="1.0" encoding="UTF-8" standalone="no"?>
<!-- Created with Inkscape (http://www.inkscape.org/) -->

<svg
   width="55.98mm"
   height="14.85mm"
   viewBox="0 0 55.98 14.85"
   version="1.1"
   id="svg16776"
   xmlns="http://www.w3.org/2000/svg"
   xmlns:svg="http://www.w3.org/2000/svg">
  <defs
     id="defs16773" />
  <g
     id="layer1"
     transform="translate(-95.562,-164.835)">
    <g
       class="com.sun.star.drawing.PolyPolygonShape"
       id="g2695"
       transform="matrix(0.01,0,0,0.01,-53.238,98.355)">
       <g
   id="id167">
        <rect
   class="BoundingBox"
   stroke="none"
   fill="none"
   x="14880"
   y="6967"
   width="203"
   height="870"
   id="rect2692" />

       </g>

      </g>
    <g
       class="com.sun.star.drawing.PolyPolygonShape"
       id="g2702"
       transform="matrix(0.01,0,0,0.01,-53.238,98.355)">
       <g
   id="id168">
        <rect
   class="BoundingBox"
   stroke="none"
   fill="none"
   x="14964"
   y="6967"
   width="34"
   height="870"
   id="rect2697" />

        <path
   fill="#000000"
   stroke="none"
   d="m 14997,7836 h -33 v -869 h 33 z"
   id="path2699" />

       </g>

      </g>
    <g
       class="com.sun.star.drawing.PolyPolygonShape"
       id="g2714"
       transform="matrix(0.01,0,0,0.01,-53.238,98.355)">
       <g
   id="id170">
        <rect
   class="BoundingBox"
   stroke="none"
   fill="none"
   x="14996"
   y="6648"
   width="5396"
   height="1485"
   id="rect2711" />

       </g>

      </g>
    <g
       class="com.sun.star.drawing.PolyPolygonShape"
       id="g2721"
       transform="matrix(0.01,0,0,0.01,-53.238,98.355)">
       <g
   id="id171">
        <rect
   class="BoundingBox"
   stroke="none"
   fill="none"
   x="14961"
   y="7814"
   width="5396"
   height="23"
   id="rect2716" />

        <path
   fill="#000000"
   stroke="none"
   d="m 14961,7814 h 5395 v 22 h -5395 z"
   id="path2718" />

       </g>

      </g>
    <g
       class="com.sun.star.drawing.PolyPolygonShape"
       id="g2728"
       transform="matrix(0.01,0,0,0.01,-53.238,98.355)">
       <g
   id="id172">
        <rect
   class="BoundingBox"
   stroke="none"
   fill="none"
   x="14961"
   y="7602"
   width="5396"
   height="23"
   id="rect2723" />

        <path
   fill="#000000"
   stroke="none"
   d="m 14961,7602 h 5395 v 22 h -5395 z"
   id="path2725" />

       </g>

      </g>
    <g
       class="com.sun.star.drawing.PolyPolygonShape"
       id="g2735"
       transform="matrix(0.01,0,0,0.01,-53.238,98.355)">
       <g
   id="id173">
        <rect
   class="BoundingBox"
   stroke="none"
   fill="none"
   x="14961"
   y="7390"
   width="5396"
   height="23"
   id="rect2730" />

        <path
   fill="#000000"
   stroke="none"
   d="m 14961,7390 h 5395 v 22 h -5395 z"
   id="path2732" />

       </g>

      </g>
    <g
       class="com.sun.star.drawing.PolyPolygonShape"
       id="g2742"
       transform="matrix(0.01,0,0,0.01,-53.238,98.355)">
       <g
   id="id174">
        <rect
   class="BoundingBox"
   stroke="none"
   fill="none"
   x="14961"
   y="7179"
   width="5396"
   height="23"
   id="rect2737" />

        <path
   fill="#000000"
   stroke="none"
   d="m 14961,7179 h 5395 v 22 h -5395 z"
   id="path2739" />

       </g>

      </g>
    <g
       class="com.sun.star.drawing.PolyPolygonShape"
       id="g2749"
       transform="matrix(0.01,0,0,0.01,-53.238,98.355)">
       <g
   id="id175">
        <rect
   class="BoundingBox"
   stroke="none"
   fill="none"
   x="14961"
   y="6967"
   width="5396"
   height="23"
   id="rect2744" />

        <path
   fill="#000000"
   stroke="none"
   d="m 14961,6967 h 5395 v 22 h -5395 z"
   id="path2746" />

       </g>

      </g>
    <g
       class="com.sun.star.drawing.PolyPolygonShape"
       id="g2756"
       transform="matrix(0.01,0,0,0.01,-53.238,98.355)">
       <g
   id="id176">
        <rect
   class="BoundingBox"
   stroke="none"
   fill="none"
   x="15497"
   y="6967"
   width="40"
   height="700"
   id="rect2751" />

        <path
   fill="#33bb33"
   stroke="none"
   d="m 15498,6967 h 38 v 699 h -38 z"
   id="path2753" />

       </g>

      </g>
    <g
       class="com.sun.star.drawing.PolyPolygonShape"
       id="g2761"
       transform="matrix(0.01,0,0,0.01,-53.238,98.355)">
       <g
   id="id177">
        <rect
   class="BoundingBox"
   stroke="none"
   fill="none"
   x="15409"
   y="6967"
   width="216"
   height="877"
   id="rect2758" />

       </g>

      </g>
    <g
       class="com.sun.star.drawing.PolyPolygonShape"
       id="g2766"
       transform="matrix(0.01,0,0,0.01,-53.238,98.355)">
       <g
   id="id178">
        <rect
   class="BoundingBox"
   stroke="none"
   fill="none"
   x="15175"
   y="7513"
   width="448"
   height="391"
   id="rect2763" />

       </g>

      </g>
    <g
       class="com.sun.star.drawing.ClosedBezierShape"
       id="g2773"
       transform="matrix(0.01,0,0,0.01,-53.238,98.355)">
       <g
   id="id179">
        <rect
   class="BoundingBox"
   stroke="none"
   fill="none"
   x="15261"
   y="7598"
   width="277"
   height="223"
   id="rect2768" />

        <path
   fill="#33bb33"
   stroke="none"
   d="m 15537,7675 c -3,39 -23,72 -60,99 -39,28 -80,43 -122,45 -27,-1 -49,-8 -66,-22 -17,-15 -28,-35 -28,-59 4,-36 24,-68 61,-96 37,-28 75,-43 114,-44 31,-1 55,5 72,19 19,12 28,31 29,58 z"
   id="path2770" />

       </g>

      </g>
    <g
       class="com.sun.star.drawing.PolyPolygonShape"
       id="g2780"
       transform="matrix(0.01,0,0,0.01,-53.238,98.355)">
       <g
   id="id180">
        <rect
   class="BoundingBox"
   stroke="none"
   fill="none"
   x="16344"
   y="6967"
   width="39"
   height="700"
   id="rect2775" />

        <path
   fill="#33bb33"
   stroke="none"
   d="m 16344,6967 h 38 v 699 h -38 z"
   id="path2777" />

       </g>

      </g>
    <g
       class="com.sun.star.drawing.PolyPolygonShape"
       id="g2785"
       transform="matrix(0.01,0,0,0.01,-53.238,98.355)">
       <g
   id="id181">
        <rect
   class="BoundingBox"
   stroke="none"
   fill="none"
   x="16256"
   y="6967"
   width="215"
   height="877"
   id="rect2782" />

       </g>

      </g>
    <g
       class="com.sun.star.drawing.PolyPolygonShape"
       id="g2790"
       transform="matrix(0.01,0,0,0.01,-53.238,98.355)">
       <g
   id="id182">
        <rect
   class="BoundingBox"
   stroke="none"
   fill="none"
   x="16022"
   y="7513"
   width="447"
   height="391"
   id="rect2787" />

       </g>

      </g>
    <g
       class="com.sun.star.drawing.ClosedBezierShape"
       id="g2797"
       transform="matrix(0.01,0,0,0.01,-53.238,98.355)">
       <g
   id="id183">
        <rect
   class="BoundingBox"
   stroke="none"
   fill="none"
   x="16107"
   y="7598"
   width="277"
   height="223"
   id="rect2792" />

        <path
   fill="#33bb33"
   stroke="none"
   d="m 16383,7675 c -3,39 -24,72 -61,99 -39,28 -79,43 -122,45 -27,-1 -48,-8 -65,-22 -18,-15 -27,-35 -28,-59 3,-36 23,-68 60,-96 37,-28 75,-43 115,-44 31,-1 55,5 72,19 19,12 29,31 29,58 z"
   id="path2794" />

       </g>

      </g>
    <g
       class="com.sun.star.drawing.PolyPolygonShape"
       id="g2802"
       transform="matrix(0.01,0,0,0.01,-53.238,98.355)">
       <g
   id="id184">
        <rect
   class="BoundingBox"
   stroke="none"
   fill="none"
   x="16869"
   y="7073"
   width="391"
   height="644"
   id="rect2799" />

       </g>

      </g>
    <g
       class="com.sun.star.drawing.ClosedBezierShape"
       id="g2809"
       transform="matrix(0.01,0,0,0.01,-53.238,98.355)">
       <g
   id="id185">
        <rect
   class="BoundingBox"
   stroke="none"
   fill="none"
   x="16954"
   y="7073"
   width="222"
   height="644"
   id="rect2804" />

        <path
   fill="#000000"
   stroke="none"
   d="m 17175,7238 c -53,57 -82,109 -87,157 1,30 10,58 27,85 l 55,73 -12,17 c -21,-11 -40,-18 -60,-19 -18,-1 -33,8 -45,25 -16,27 -18,51 -6,73 11,23 23,40 37,50 l -12,17 -77,-67 c -24,-24 -38,-53 -41,-86 4,-48 32,-73 81,-73 20,0 42,6 67,20 v -2 l -135,-175 c 25,-21 46,-46 63,-75 17,-29 25,-60 22,-93 -10,-34 -26,-65 -51,-92 h 36 z"
   id="path2806" />

       </g>

      </g>
    <g
       class="com.sun.star.drawing.PolyPolygonShape"
       id="g2814"
       transform="matrix(0.01,0,0,0.01,-53.238,98.355)">
       <g
   id="id186">
        <rect
   class="BoundingBox"
   stroke="none"
   fill="none"
   x="18002"
   y="7067"
   width="542"
   height="542"
   id="rect2811" />

       </g>

      </g>
    <g
       class="com.sun.star.drawing.PolyPolygonShape"
       id="g2821"
       transform="matrix(0.01,0,0,0.01,-53.238,98.355)">
       <g
   id="id187">
        <rect
   class="BoundingBox"
   stroke="none"
   fill="none"
   x="18137"
   y="7284"
   width="271"
   height="108"
   id="rect2816" />

        <path
   fill="#000000"
   stroke="none"
   d="m 18407,7391 h -269 v -107 h 269 z"
   id="path2818" />

       </g>

      </g>
    <g
       class="com.sun.star.drawing.PolyPolygonShape"
       id="g2826"
       transform="matrix(0.01,0,0,0.01,-53.238,98.355)">
       <g
   id="id188">
        <rect
   class="BoundingBox"
   stroke="none"
   fill="none"
   x="18087"
   y="7152"
   width="374"
   height="372"
   id="rect2823" />

       </g>

      </g>
    <g
       class="com.sun.star.drawing.PolyPolygonShape"
       id="g2831"
       transform="matrix(0.01,0,0,0.01,-53.238,98.355)">
       <g
   id="id189">
        <rect
   class="BoundingBox"
   stroke="none"
   fill="none"
   x="20085"
   y="6967"
   width="393"
   height="870"
   id="rect2828" />

       </g>

      </g>
    <g
       class="com.sun.star.drawing.PolyPolygonShape"
       id="g2838"
       transform="matrix(0.01,0,0,0.01,-53.238,98.355)">
       <g
   id="id190">
        <rect
   class="BoundingBox"
   stroke="none"
   fill="none"
   x="20170"
   y="6967"
   width="223"
   height="870"
   id="rect2833" />

        <path
   fill="#000000"
   stroke="none"
   d="m 20204,6967 v 869 h -34 v -869 z m 187,0 v 869 h -128 v -869 z"
   id="path2835" />

       </g>

      </g>
    <g
       class="com.sun.star.drawing.PolyPolygonShape"
       id="g2845"
       transform="matrix(0.01,0,0,0.01,-53.238,98.355)">
       <g
   id="id191">
        <rect
   class="BoundingBox"
   stroke="none"
   fill="none"
   x="15535"
   y="6967"
   width="848"
   height="108"
   id="rect2840" />

        <path
   fill="#33bb33"
   stroke="none"
   d="m 15535,6967 v 107 h 847 v -107 z"
   id="path2842" />

       </g>

      </g>
  </g>
</svg>
