<?xml version="1.0" encoding="UTF-8" standalone="no"?>
<!-- Created with Inkscape (http://www.inkscape.org/) -->

<svg
   version="1.1"
   id="svg76"
   width="1080"
   height="1080"
   viewBox="0 0 1080 1080"
   xmlns="http://www.w3.org/2000/svg">
  <defs
     id="defs80" />
  <g
     id="g82">
    <path
       style="fill:#000000;fill-opacity:1"
       d="M 221,971 C 168.00098,968.8228 109.11906,966.73094 68.551872,928 48.264036,906.27829 44.309002,874.34052 50.25,845.55881 72.395564,786.27999 127.08784,749.33238 177.25,715.63966 247.0926,672.24945 320.25795,637.58553 394.39935,602.4017 471.80245,567.36209 549.81279,531.97846 626,493.61599 c 48.90042,-25.8221 97.31164,-53.14313 144.69335,-82.16648 39.80171,-26.86007 81.70027,-53.11407 118.55665,-84.95113 37.73431,-30.4755 75.19429,-64.48701 99.24748,-107.48691 10.54196,-21.61267 28.35472,-53.40741 9.92927,-74.7121 C 970.009,123.94627 933.86501,137.36611 908,155.5 c -54.97349,36.26951 -97.56138,90.40214 -135,144.93828 -28.6919,42.09587 -55.61063,84.60453 -86,125.24978 -15.28652,-6.87832 3.71886,-30.60459 18.60878,-56.3105 C 720.49869,343.67165 751.69851,294.05849 777.5,258.35714 816.16421,205.17932 861.17615,151.61581 920.39304,119.47717 955.50168,101.33007 1013.5429,102.56561 1029.4067,145 1041.3326,199.53575 1008.5748,251.39484 974.42969,291.25788 935.46291,333.89193 890.71661,369.63574 843.75413,402 797.88796,433.52933 748.08572,463.53246 699.78947,489.98151 641.39269,522.27418 580.74573,551.54464 520,578.45469 441.00164,615.55665 359.89965,648.7873 283,689.57946 c -37.73655,17.83955 -74.44712,39.56274 -108.99053,62.01867 -38.59459,25.70605 -76.344699,54.50501 -99.027696,96.57461 -18.278329,32.343 7.7316,69.27098 38.018226,81.53693 52.97657,22.81762 112.16985,16.8127 168.75001,15.54033 C 350.58293,938.56789 419.80082,921.50779 485,898.42804 554.17522,872.58468 623.45432,840.84491 681.02667,795.34467 700.11029,778.60709 723.2614,760.35463 729,733.5 718.23308,696.10075 671.54367,703.08402 641.19068,704.66765 590.20046,713.09223 543.37926,736.56622 502,767 c -19.29629,-5.58149 15.81678,-24.83153 24.09363,-32.52056 41.2885,-24.03585 86.28601,-45.34964 135.41602,-44.93226 26.27952,-3.77358 61.90156,0.34084 77.87372,25.45282 14.49906,32.5661 -12.33183,64.46847 -34.38337,85.53138 -31.14189,27.94929 -66.36301,50.32658 -104,70.42331 -70.54909,36.55969 -145.34717,64.01687 -223.07943,81.84119 C 325.98574,962.67255 273.94678,969.9538 221,971 Z m 4.45383,-83.12063 c -1.70074,0.0699 -7.48006,-0.49309 -11.6861,-2.65444 -3.55269,-1.82562 -5.55309,-5.28313 -7.40326,-5.45661 -3.46109,-0.32453 -9.4267,7.38531 -17.68459,3.87782 -4.74355,-2.01479 -7.75334,-6.91573 -7.66066,-11.58365 0.0914,-4.60438 4.49075,-11.9562 5.42273,-8.55936 0.76932,2.80399 -2.38293,13.5628 4.77072,13.72818 6.06139,0.14013 8.47646,-4.53528 15.46842,-4.19956 8.25692,0.39647 7.12638,6.80092 17.32985,6.49698 5.55911,-0.16559 13.15692,-4.22671 19.98168,-8.53978 6.91755,-4.37171 11.63409,-11.18032 14.61965,-8.59407 2.98557,2.58625 -7.48199,11.94816 -14.19723,17.14537 -4.25143,3.29036 -13.57455,8.11785 -18.96121,8.33912 z m 6.95972,-97.06815 c -22.67573,-7.52876 -3.26103,-55.45075 20.28252,-45.21498 15.74326,6.84453 -5.86848,50.00071 -20.28252,45.21498 z m 80.11319,-0.78195 c -22.42631,-8.23401 -2.23801,-53.47335 19.53548,-44.7629 13.75979,5.50458 -1.41194,48.16415 -19.53548,44.7629 z M 227.31116,656.2547 c 9.42709,-54.19739 14.1811,-67.91027 25.195,-102.61901 11.0139,-34.70874 30.48159,-87.15069 61.65201,-104.79664 12.99408,-7.53245 28.44128,-3.37089 36.67198,6.20839 11.0925,12.90997 11.78566,33.35713 1.28524,26.52387 -11.49126,-40.86919 -45.52024,-6.72074 -58.70879,23.09352 -23.70519,48.01711 -40.19174,104.9215 -66.09544,151.58987 z M 346.0886,591.57212 c 8.99797,-39.80441 6.79954,-29.18529 18.32907,-59.48241 C 375.9472,501.79259 410.86288,439.61636 431.2,414.2 c 20.33712,-25.41636 37.65926,-37.66663 60.40133,-40.57462 25.40612,-3.24864 44.69458,44.38437 25.22151,43.86385 -0.46667,-47.21208 -46.06979,-19.0872 -66.8622,7.1143 -35.04459,46.41702 -54.89431,87.18595 -70.9058,115.53485 -16.0115,28.3489 -12.5281,23.72618 -32.96624,51.43374 z M 499.88715,543 c -3.46629,-20.828 13.77578,-41.78409 20.08476,-62.16667 C 546.47934,421.62374 574.10677,362.11715 619.27776,315 c 17.39951,-18.27211 47.2712,-34.61563 71.71081,-19.27776 22.93827,15.45862 8.67289,77.60818 2.59478,23.06447 -22.71898,-32.41995 -61.78098,7.17243 -76.13739,29.96329 -38.82533,54.73332 -67.36354,114.98556 -102.04931,171.86024 -4.59414,7.67928 -7.94891,17.1123 -15.5095,22.38976 z"
       id="path925" />
  </g>
</svg>
